name rise49.8558peak67.6521fall70.3087.mot
datacolumns 19
datarows 36
range 6.15497400000000 6.21331000000000
endheader
time	ground_force1_vx	ground_force1_vy	ground_force1_vz	ground_force1_px	ground_force1_py	ground_force1_pz	ground_force2_vx	ground_force2_vy	ground_force2_vz	ground_force2_px	ground_force2_py	ground_force2_pz	ground_torque1_x	ground_torque1_y	ground_torque1_z	ground_torque2_x	ground_torque2_y	ground_torque2_z	
6.15497400000000	-62.40970800000000	815.37260400000002	64.55014400000000	0.13030400000000	0.00000000000000	0.12505800000000	0.00000000000000	0.00000000000000	0.00000000000000	0.00000000000000	0.00000000000000	0.00000000000000	0.00000000000000	31.10009800000000	0.00000000000000	0.00000000000000	0.00000000000000	0.00000000000000	
6.15664600000000	-62.79858300000000	815.67003599999998	64.71873400000000	0.12953100000000	0.00000000000000	0.12502300000000	0.00000000000000	0.00000000000000	0.00000000000000	0.00000000000000	0.00000000000000	0.00000000000000	0.00000000000000	31.09032100000000	0.00000000000000	0.00000000000000	0.00000000000000	0.00000000000000	
6.15831200000000	-63.18341200000000	815.85131999999999	64.87264000000000	0.12876300000000	0.00000000000000	0.12498500000000	0.00000000000000	0.00000000000000	0.00000000000000	0.00000000000000	0.00000000000000	0.00000000000000	0.00000000000000	31.07503600000000	0.00000000000000	0.00000000000000	0.00000000000000	0.00000000000000	
6.15997300000000	-63.56464800000000	815.91264699999999	65.01103100000000	0.12800000000000	0.00000000000000	0.12494400000000	0.00000000000000	0.00000000000000	0.00000000000000	0.00000000000000	0.00000000000000	0.00000000000000	0.00000000000000	31.05428400000000	0.00000000000000	0.00000000000000	0.00000000000000	0.00000000000000	
6.16164100000000	-63.94273700000000	815.85029699999996	65.13308200000000	0.12724100000000	0.00000000000000	0.12490000000000	0.00000000000000	0.00000000000000	0.00000000000000	0.00000000000000	0.00000000000000	0.00000000000000	0.00000000000000	31.02811100000000	0.00000000000000	0.00000000000000	0.00000000000000	0.00000000000000	
6.16331400000000	-64.31812400000000	815.66065000000003	65.23796400000001	0.12648500000000	0.00000000000000	0.12485200000000	0.00000000000000	0.00000000000000	0.00000000000000	0.00000000000000	0.00000000000000	0.00000000000000	0.00000000000000	30.99656800000000	0.00000000000000	0.00000000000000	0.00000000000000	0.00000000000000	
6.16497800000000	-64.69124400000000	815.34017900000003	65.32485800000001	0.12573200000000	0.00000000000000	0.12480200000000	0.00000000000000	0.00000000000000	0.00000000000000	0.00000000000000	0.00000000000000	0.00000000000000	0.00000000000000	30.95971100000000	0.00000000000000	0.00000000000000	0.00000000000000	0.00000000000000	
6.16664200000000	-65.06252200000000	814.88545799999997	65.39294599999999	0.12498200000000	0.00000000000000	0.12474800000000	0.00000000000000	0.00000000000000	0.00000000000000	0.00000000000000	0.00000000000000	0.00000000000000	0.00000000000000	30.91759900000000	0.00000000000000	0.00000000000000	0.00000000000000	0.00000000000000	
6.16831200000000	-65.43236500000000	814.29315899999995	65.44142200000000	0.12423400000000	0.00000000000000	0.12469000000000	0.00000000000000	0.00000000000000	0.00000000000000	0.00000000000000	0.00000000000000	0.00000000000000	0.00000000000000	30.87029300000000	0.00000000000000	0.00000000000000	0.00000000000000	0.00000000000000	
6.16997300000000	-65.80116300000000	813.56005700000003	65.46948800000000	0.12348800000000	0.00000000000000	0.12462900000000	0.00000000000000	0.00000000000000	0.00000000000000	0.00000000000000	0.00000000000000	0.00000000000000	0.00000000000000	30.81785900000000	0.00000000000000	0.00000000000000	0.00000000000000	0.00000000000000	
6.17164500000000	-66.16928200000000	812.68302900000003	65.47635900000000	0.12274400000000	0.00000000000000	0.12456500000000	0.00000000000000	0.00000000000000	0.00000000000000	0.00000000000000	0.00000000000000	0.00000000000000	0.00000000000000	30.76036200000000	0.00000000000000	0.00000000000000	0.00000000000000	0.00000000000000	
6.17330500000000	-66.53706400000000	811.65905599999996	65.46126599999999	0.12200000000000	0.00000000000000	0.12449600000000	0.00000000000000	0.00000000000000	0.00000000000000	0.00000000000000	0.00000000000000	0.00000000000000	0.00000000000000	30.69787000000000	0.00000000000000	0.00000000000000	0.00000000000000	0.00000000000000	
6.17498000000000	-66.90481800000001	810.48522200000002	65.42345600000000	0.12125800000000	0.00000000000000	0.12442400000000	-1.21197800000000	3.21439800000000	0.56642100000000	0.00000000000000	0.00000000000000	0.00000000000000	0.00000000000000	30.63045300000000	0.00000000000000	0.00000000000000	0.16722700000000	0.00000000000000	
6.17664100000000	-67.27282099999999	809.15871700000002	65.36219400000000	0.12051600000000	0.00000000000000	0.12434700000000	-1.85518100000000	6.73820900000000	0.94549800000000	0.00000000000000	0.00000000000000	0.00000000000000	0.00000000000000	30.55817800000000	0.00000000000000	0.00000000000000	0.29638200000000	0.00000000000000	
6.17830700000000	-67.64131300000000	807.67683699999998	65.27676900000000	0.11977300000000	0.00000000000000	0.12426700000000	-2.56393500000000	11.07093500000000	1.38201900000000	0.00000000000000	0.00000000000000	0.00000000000000	0.00000000000000	30.48111600000000	0.00000000000000	0.00000000000000	0.44844800000000	0.00000000000000	
6.17997700000000	-68.01049300000000	806.03698399999996	65.16649200000001	0.11903100000000	0.00000000000000	0.12418200000000	-3.31086200000000	16.18763700000000	1.86489500000000	0.00000000000000	0.00000000000000	0.00000000000000	0.00000000000000	30.39933300000000	0.00000000000000	0.00000000000000	0.62056200000000	0.00000000000000	
6.18164800000000	-68.38051600000000	804.23666600000001	65.03070099999999	0.11828900000000	0.00000000000000	0.12409300000000	-4.06316800000000	22.03010000000000	2.37960600000000	0.00000000000000	0.00000000000000	0.00000000000000	0.00000000000000	30.31289700000000	0.00000000000000	0.00000000000000	0.80866200000000	0.00000000000000	
6.18330700000000	-68.75148900000001	802.27350100000001	64.86876400000000	0.11754500000000	0.00000000000000	0.12400000000000	-4.78472300000000	28.51152300000000	2.90913100000000	0.33773900000000	0.00000000000000	-0.07595400000000	0.00000000000000	30.22187300000000	0.00000000000000	0.00000000000000	1.62685800000000	0.00000000000000	
6.18497400000000	-69.12347000000000	800.14521500000001	64.68007799999999	0.11680200000000	0.00000000000000	0.12390200000000	-5.43858300000000	35.52418000000000	3.43517400000000	0.34677300000000	0.00000000000000	-0.07641100000000	0.00000000000000	30.12632200000000	0.00000000000000	0.00000000000000	1.98793200000000	0.00000000000000	
6.18663900000000	-69.49646199999999	797.84964100000002	64.46407499999999	0.11605700000000	0.00000000000000	0.12379900000000	-5.98965900000000	42.94904000000000	3.93951900000000	0.35453900000000	0.00000000000000	-0.07680800000000	0.00000000000000	30.02630500000000	0.00000000000000	0.00000000000000	2.35317800000000	0.00000000000000	
6.18830600000000	-69.87041400000000	795.38472700000000	64.22022300000000	0.11531100000000	0.00000000000000	0.12369200000000	-6.40714900000000	50.66593100000000	4.40533800000000	0.36129400000000	0.00000000000000	-0.07716000000000	0.00000000000000	29.92187700000000	0.00000000000000	0.00000000000000	2.71234100000000	0.00000000000000	
6.18997600000000	-70.24521400000000	792.74852799999996	63.94802600000000	0.11456400000000	0.00000000000000	0.12358000000000	-6.66644900000000	58.56290000000000	4.81827900000000	0.36723300000000	0.00000000000000	-0.07747600000000	0.00000000000000	29.81309100000000	0.00000000000000	0.00000000000000	3.05617200000000	0.00000000000000	
6.19166400000000	-70.62068900000000	789.93921300000000	63.64703100000000	0.11381600000000	0.00000000000000	0.12346300000000	-6.75035300000000	66.54374100000000	5.16723000000000	0.37250300000000	0.00000000000000	-0.07776200000000	0.00000000000000	29.69999500000000	0.00000000000000	0.00000000000000	3.37696300000000	0.00000000000000	
6.19330800000000	-70.99660400000000	786.95506499999999	63.31682700000000	0.11306800000000	0.00000000000000	0.12334100000000	-6.64949500000000	74.53313600000000	5.44471100000000	0.37721500000000	0.00000000000000	-0.07802300000000	0.00000000000000	29.58263100000000	0.00000000000000	0.00000000000000	3.66888300000000	0.00000000000000	
6.19497800000000	-71.37265700000000	783.79448300000001	62.95705000000000	0.11231800000000	0.00000000000000	0.12321300000000	-6.36208700000000	82.47926099999999	5.64691200000000	0.38146000000000	0.00000000000000	-0.07826500000000	0.00000000000000	29.46103600000000	0.00000000000000	0.00000000000000	3.92811000000000	0.00000000000000	
6.19665900000000	-71.74847900000000	780.45597699999996	62.56738200000000	0.11156800000000	0.00000000000000	0.12308100000000	-5.89308700000000	90.35402300000000	5.77342500000000	0.38531000000000	0.00000000000000	-0.07849100000000	0.00000000000000	29.33524400000000	0.00000000000000	0.00000000000000	4.15278200000000	0.00000000000000	
6.19831400000000	-72.12363300000000	776.93818099999999	62.14755400000000	0.11081800000000	0.00000000000000	0.12294300000000	-5.25295100000000	98.15130600000001	5.82674300000000	0.38882000000000	0.00000000000000	-0.07870200000000	0.00000000000000	29.20527800000000	0.00000000000000	0.00000000000000	4.34279100000000	0.00000000000000	
6.19997600000000	-72.49761200000000	773.23984199999995	61.69735100000000	0.11006800000000	0.00000000000000	0.12280000000000	-4.45615200000000	105.88369700000000	5.81160500000000	0.39203900000000	0.00000000000000	-0.07890100000000	0.00000000000000	29.07115900000000	0.00000000000000	0.00000000000000	4.49947200000000	0.00000000000000	
6.20164400000000	-72.86983700000000	769.35983099999999	61.21661200000000	0.10931700000000	0.00000000000000	0.12265100000000	-3.51962400000000	113.57825900000000	5.73427700000000	0.39500400000000	0.00000000000000	-0.07909000000000	0.00000000000000	28.93289700000000	0.00000000000000	0.00000000000000	4.62522800000000	0.00000000000000	
6.20331200000000	-73.23966000000000	765.29714100000001	60.70523000000000	0.10856800000000	0.00000000000000	0.12249700000000	-2.46127300000000	121.27184400000000	5.60183000000000	0.39774800000000	0.00000000000000	-0.07927000000000	0.00000000000000	28.79049700000000	0.00000000000000	0.00000000000000	4.72313400000000	0.00000000000000	
6.20498100000000	-73.60635700000000	761.05088899999998	60.16315900000000	0.10781900000000	0.00000000000000	0.12233700000000	-1.29866400000000	129.00641600000000	5.42147500000000	0.40029800000000	0.00000000000000	-0.07944300000000	0.00000000000000	28.64395600000000	0.00000000000000	0.00000000000000	4.79655500000000	0.00000000000000	
6.20664200000000	-73.96913800000000	756.62031999999999	59.59041200000000	0.10707200000000	0.00000000000000	0.12217200000000	-0.04796600000000	136.82475600000001	5.20001200000000	0.40267600000000	0.00000000000000	-0.07960900000000	0.00000000000000	28.49326300000000	0.00000000000000	0.00000000000000	4.84881300000000	0.00000000000000	
6.20831200000000	-74.32713699999999	752.00481100000002	58.98706300000000	0.10632700000000	0.00000000000000	0.12200000000000	1.27682300000000	144.76682700000001	4.94339200000000	0.40490100000000	0.00000000000000	-0.07976800000000	0.00000000000000	28.33839800000000	0.00000000000000	0.00000000000000	4.88291100000000	0.00000000000000	
6.20997400000000	-74.67942100000000	747.20387200000005	58.35324900000000	0.10558400000000	0.00000000000000	0.12182300000000	2.66433900000000	152.86695000000000	4.65643800000000	0.40699100000000	0.00000000000000	-0.07992300000000	0.00000000000000	28.17933300000000	0.00000000000000	0.00000000000000	4.90133200000000	0.00000000000000	
6.21164200000000	-75.02498500000000	742.21715099999994	57.68917300000000	0.10484500000000	0.00000000000000	0.12164000000000	4.10603800000000	161.15187599999999	4.34268500000000	0.40895900000000	0.00000000000000	-0.08007300000000	0.00000000000000	28.01603000000000	0.00000000000000	0.00000000000000	4.90592000000000	0.00000000000000	
6.21331000000000	-75.36275800000000	737.04444300000000	56.99510200000000	0.10410900000000	0.00000000000000	0.12145100000000	5.59613600000000	169.63973500000000	4.00436000000000	0.41081700000000	0.00000000000000	-0.08021800000000	0.00000000000000	27.84844500000000	0.00000000000000	0.00000000000000	4.89782600000000	0.00000000000000	
